/* XPM */
static char *dummy[]={
"4 6 2 1",
". c #000000",
"# c #ffffff",
"....",
"####",
"####",
"####",
"####",
"...."};
