/* XPM */
static char *dummy[]={
"22 22 3 1",
"a c None",
". c #000000",
"# c #ffffff",
".####.aaaaaaaaaaaaaaaa",
".####.aaaaaaaaaaaaaaaa",
".####.aaaaaaaaaaaaaaaa",
".####.aaaaaaaaaaaaaaaa",
".####.aaaaaaaaaaaaaaaa",
".####.aaaaaaaaaaaaaaaa",
".####.aaaaaaaaaaaaaaaa",
".####.aaaaaaaaaaaaaaaa",
".####.aaaaaaaaaaaaaaaa",
".####.aaaaaaaaaaaaaaaa",
".####.aaaaaaaaaaaaaaaa",
".####.aaaaaaaaaaaaaaaa",
".####.aaaaaaaaaaaaaaaa",
".####.aaaaaaaaaaaaaaaa",
".####.aaaaaaaaaaaaaaaa",
".####.aaaaaaaaaaaaaaaa",
".####.................",
".#####################",
".#####################",
".#####################",
".#####################",
"......................"};
