/* XPM */
static char *dummy[]={
"11 11 2 1",
". c #000000",
"# c #ffffff",
"...........",
".#########.",
".#########.",
".#########.",
".#########.",
".#########.",
".#########.",
"...........",
".#########.",
".#########.",
"..........."};
