/* XPM */
static char *dummy[]={
"6 1 2 1",
". c #000000",
"# c #ffffff",
".####."};
