/* XPM */
static char *dummy[]={
"13 14 7 1",
"a c None",
". c None",
"e c None",
"# c None",
"c c None",
"b c #000000",
"d c #ffffff",
"............#",
"abbbbbbbbbbbc",
"abdddddddddbc",
"abdddddddddbc",
"abdddddddddbc",
"abbbbbbbbbbbc",
"abdddddddddbc",
"abbbbbbbbbbbc",
"abdddddddddbc",
"abdddddddddbc",
"abdddddddddbc",
"abbbbbbbbbbbc",
"ecccccccccccc",
"eeeeeeeeeeeee"};
