/* XPM */
static char *dummy[]={
"7 19 2 1",
". c #000000",
"# c #ffffff",
".......",
"#######",
"#######",
"#######",
"#######",
"#######",
"#######",
"#######",
"#######",
"#######",
"#######",
"#######",
"#######",
"#######",
"#######",
"#######",
"#######",
"#######",
"......."};
